<mxfile host="app.diagrams.net" agent="Mozilla/5.0 (Windows NT 10.0; Win64; x64) AppleWebKit/537.36 (KHTML, like Gecko) Chrome/139.0.0.0 Safari/537.36" version="28.1.0">
  <diagram name="Page-1" id="UYkgr_-dPcbaNlBzHZl1">
    <mxGraphModel dx="1042" dy="562" grid="1" gridSize="10" guides="1" tooltips="1" connect="1" arrows="1" fold="1" page="1" pageScale="1" pageWidth="850" pageHeight="1100" math="0" shadow="0">
      <root>
        <mxCell id="0" />
        <mxCell id="1" parent="0" />
        <mxCell id="2" value="Frontend" style="whiteSpace=wrap;strokeWidth=2;" parent="1" vertex="1">
          <mxGeometry x="363" y="70" width="125" height="54" as="geometry" />
        </mxCell>
        <mxCell id="3" value="API Gateway" style="whiteSpace=wrap;strokeWidth=2;" parent="1" vertex="1">
          <mxGeometry x="350" y="196" width="150" height="54" as="geometry" />
        </mxCell>
        <mxCell id="4" value="Load Balancer" style="whiteSpace=wrap;strokeWidth=2;" parent="1" vertex="1">
          <mxGeometry x="345" y="323" width="161" height="54" as="geometry" />
        </mxCell>
        <mxCell id="5" value="Micro-Service 1" style="whiteSpace=wrap;strokeWidth=2;" parent="1" vertex="1">
          <mxGeometry x="121" y="449" width="169" height="54" as="geometry" />
        </mxCell>
        <mxCell id="6" value="Micro-Service 2" style="whiteSpace=wrap;strokeWidth=2;" parent="1" vertex="1">
          <mxGeometry x="340" y="449" width="169" height="54" as="geometry" />
        </mxCell>
        <mxCell id="7" value="Micro-Service 3" style="whiteSpace=wrap;strokeWidth=2;" parent="1" vertex="1">
          <mxGeometry x="560" y="449" width="169" height="54" as="geometry" />
        </mxCell>
        <mxCell id="9" value="HTTP Requests" style="curved=1;startArrow=none;endArrow=block;exitX=0.5;exitY=1;entryX=0.5;entryY=0.01;" parent="1" source="2" target="3" edge="1">
          <mxGeometry relative="1" as="geometry">
            <Array as="points" />
          </mxGeometry>
        </mxCell>
        <mxCell id="10" value="Routes Requests" style="curved=1;startArrow=none;endArrow=block;exitX=0.5;exitY=1.01;entryX=0.5;entryY=0;" parent="1" source="3" target="4" edge="1">
          <mxGeometry relative="1" as="geometry">
            <Array as="points" />
          </mxGeometry>
        </mxCell>
        <mxCell id="11" value="Distributes Load" style="curved=1;startArrow=none;endArrow=block;exitX=0;exitY=0.93;entryX=0.5;entryY=0;" parent="1" source="4" target="5" edge="1">
          <mxGeometry relative="1" as="geometry">
            <Array as="points">
              <mxPoint x="206" y="413" />
            </Array>
          </mxGeometry>
        </mxCell>
        <mxCell id="12" value="Distributes Load" style="curved=1;startArrow=none;endArrow=block;exitX=0.5;exitY=1;entryX=0.5;entryY=0;" parent="1" source="4" target="6" edge="1">
          <mxGeometry relative="1" as="geometry">
            <Array as="points" />
          </mxGeometry>
        </mxCell>
        <mxCell id="13" value="Distributes Load" style="curved=1;startArrow=none;endArrow=block;exitX=1;exitY=0.93;entryX=0.5;entryY=0;" parent="1" source="4" target="7" edge="1">
          <mxGeometry relative="1" as="geometry">
            <Array as="points">
              <mxPoint x="645" y="413" />
            </Array>
          </mxGeometry>
        </mxCell>
        <mxCell id="14" value="Query" style="curved=1;startArrow=none;endArrow=block;exitX=0.5;exitY=1;entryX=0;entryY=0.16;" parent="1" source="5" edge="1">
          <mxGeometry relative="1" as="geometry">
            <Array as="points">
              <mxPoint x="206" y="539" />
            </Array>
            <mxPoint x="362" y="584.6400000000001" as="targetPoint" />
          </mxGeometry>
        </mxCell>
        <mxCell id="15" value="Query" style="curved=1;startArrow=none;endArrow=block;exitX=0.5;exitY=1;entryX=0.5;entryY=-0.01;" parent="1" source="6" edge="1">
          <mxGeometry relative="1" as="geometry">
            <Array as="points" />
            <mxPoint x="425" y="576" as="targetPoint" />
          </mxGeometry>
        </mxCell>
        <mxCell id="16" value="Query" style="curved=1;startArrow=none;endArrow=block;exitX=0.5;exitY=1;entryX=1;entryY=0.16;" parent="1" source="7" edge="1">
          <mxGeometry relative="1" as="geometry">
            <Array as="points">
              <mxPoint x="645" y="539" />
            </Array>
            <mxPoint x="488" y="584.6400000000001" as="targetPoint" />
          </mxGeometry>
        </mxCell>
        <mxCell id="tWTeXWjwmvs5CfhTNJ_o-17" value="Database" style="shape=cylinder3;whiteSpace=wrap;html=1;boundedLbl=1;backgroundOutline=1;size=15;" vertex="1" parent="1">
          <mxGeometry x="362.38" y="700" width="130.62" height="90" as="geometry" />
        </mxCell>
        <mxCell id="tWTeXWjwmvs5CfhTNJ_o-19" value="Hibernate/JPA" style="whiteSpace=wrap;strokeWidth=2;" vertex="1" parent="1">
          <mxGeometry x="363" y="580" width="127" height="54" as="geometry" />
        </mxCell>
        <mxCell id="tWTeXWjwmvs5CfhTNJ_o-22" value="" style="endArrow=classic;startArrow=classic;html=1;rounded=0;exitX=0.5;exitY=0;exitDx=0;exitDy=0;exitPerimeter=0;" edge="1" parent="1" source="tWTeXWjwmvs5CfhTNJ_o-17">
          <mxGeometry width="50" height="50" relative="1" as="geometry">
            <mxPoint x="600" y="520" as="sourcePoint" />
            <mxPoint x="427" y="634" as="targetPoint" />
          </mxGeometry>
        </mxCell>
      </root>
    </mxGraphModel>
  </diagram>
</mxfile>
